<svg id="Layer_3" data-name="Layer 3" xmlns="http://www.w3.org/2000/svg" viewBox="0 0 583.658 41.373">
  <title>arthead</title>
  <style type="text/css">
    @import url(../css/stylesheet.css);
    path {
      fill: black;
    }
  </style>
  <g>
    <g>
      <path d="M747.744,17.087V12.207h26.01v4.881H763.439V51.028h-5.38V17.087H747.744Z" transform="translate(-646.753 -10.376)"/>
      <path d="M789.365,50.668a11.62,11.62,0,0,1-4.52.915q-9.429,0-9.428-11.2V20.137l5.158-.721V39.77q0,3.826,1.082,5.546t3.854,1.719a8.542,8.542,0,0,0,4.021-.915,7.231,7.231,0,0,0,2.8-2.579v-23.4l5.158-.721V41.323a31.309,31.309,0,0,0,.3,4.964,11.973,11.973,0,0,0,1.192,3.522l-4.437,1.775a11.755,11.755,0,0,1-1.442-3.327A11.989,11.989,0,0,1,789.365,50.668Z" transform="translate(-646.753 -10.376)"/>
      <path d="M809.913,51.028h-5.1V24.352h-3.383V19.971h8.485V51.028Zm-0.3-34.44a3.385,3.385,0,0,1-2.357.777q-3.106,0-3.105-3.217,0-3.382,3.105-3.383a3.246,3.246,0,0,1,2.357.832,3.4,3.4,0,0,1,.859,2.551A3.133,3.133,0,0,1,809.608,16.588Z" transform="translate(-646.753 -10.376)"/>
      <path d="M814.349,24.352V19.971h3.272l1.109-4.991,3.827-.721,0.055,5.713h8.541v4.381h-8.541l-0.055,16.915q0,3.44.887,4.769t3.6,1.331q0.887,0,2.108-.111a9.861,9.861,0,0,0,1.941-.333l0.776,4.049a23.537,23.537,0,0,1-2.634.527,18.556,18.556,0,0,1-2.69.25q-4.991,0-7.043-2.246t-2.052-7.626V24.352h-3.105Z" transform="translate(-646.753 -10.376)"/>
      <path d="M840.969,51.028h-5.1V24.352h-3.383V19.971h8.485V51.028Zm-0.3-34.44a3.385,3.385,0,0,1-2.357.777q-3.106,0-3.105-3.217,0-3.382,3.105-3.383a3.246,3.246,0,0,1,2.357.832,3.4,3.4,0,0,1,.859,2.551A3.133,3.133,0,0,1,840.664,16.588Z" transform="translate(-646.753 -10.376)"/>
      <path d="M851.2,22.494a13.052,13.052,0,0,1,16.8-.028q3.078,3.051,3.078,8.43V40.1q0,5.38-3.078,8.43a13.052,13.052,0,0,1-16.8-.028,11.352,11.352,0,0,1-3.078-8.4V30.9A11.352,11.352,0,0,1,851.2,22.494Zm3.688,22.572a6.73,6.73,0,0,0,9.4,0,8.454,8.454,0,0,0,1.636-5.629V31.562a8.455,8.455,0,0,0-1.636-5.629,6.73,6.73,0,0,0-9.4,0,8.551,8.551,0,0,0-1.608,5.629v7.875A8.55,8.55,0,0,0,854.889,45.066Z" transform="translate(-646.753 -10.376)"/>
      <path d="M883.228,19.416v3.66a13.01,13.01,0,0,1,3.632-2.635,9.386,9.386,0,0,1,4.187-1.026q4.879,0,7.154,2.69t2.274,8.014V51.028h-5.1V30.841a9.047,9.047,0,0,0-1.192-5.213q-1.193-1.664-4.076-1.664a6.641,6.641,0,0,0-3.716,1.22,11.966,11.966,0,0,0-3.05,2.884v22.96h-5.158V20.137Z" transform="translate(-646.753 -10.376)"/>
      <path d="M923.407,22.494a13.052,13.052,0,0,1,16.8-.028q3.078,3.051,3.078,8.43V40.1q0,5.38-3.078,8.43a13.052,13.052,0,0,1-16.8-.028,11.352,11.352,0,0,1-3.078-8.4V30.9A11.352,11.352,0,0,1,923.407,22.494ZM927.1,45.066a6.73,6.73,0,0,0,9.4,0,8.454,8.454,0,0,0,1.636-5.629V31.562a8.455,8.455,0,0,0-1.636-5.629,6.73,6.73,0,0,0-9.4,0,8.551,8.551,0,0,0-1.608,5.629v7.875A8.55,8.55,0,0,0,927.1,45.066Z" transform="translate(-646.753 -10.376)"/>
      <path d="M955.435,19.416v3.66a13.01,13.01,0,0,1,3.632-2.635,9.386,9.386,0,0,1,4.187-1.026q4.879,0,7.154,2.69t2.274,8.014V51.028h-5.1V30.841a9.047,9.047,0,0,0-1.192-5.213q-1.193-1.664-4.076-1.664a6.641,6.641,0,0,0-3.716,1.22,11.966,11.966,0,0,0-3.05,2.884v22.96h-5.158V20.137Z" transform="translate(-646.753 -10.376)"/>
      <path d="M989.818,24.352V19.971h3.272l1.11-4.991,3.826-.721,0.056,5.713h8.541v4.381h-8.541l-0.056,16.915q0,3.44.887,4.769t3.605,1.331q0.886,0,2.107-.111a9.856,9.856,0,0,0,1.941-.333l0.777,4.049a23.527,23.527,0,0,1-2.634.527,18.571,18.571,0,0,1-2.69.25q-4.991,0-7.043-2.246t-2.051-7.626V24.352h-3.106Z" transform="translate(-646.753 -10.376)"/>
      <path d="M1016.493,10.376l-0.055,12.534a12.939,12.939,0,0,1,3.577-2.551,9.451,9.451,0,0,1,4.131-.943q4.936,0,7.21,2.606t2.274,7.875v21.13h-5.1V30.619q0-3.494-1.221-5.075t-4.159-1.581a6.7,6.7,0,0,0-3.66,1.137,12.389,12.389,0,0,0-3.05,2.745V51.028h-5.1V11.1Z" transform="translate(-646.753 -10.376)"/>
      <path d="M1043.7,22.466a13.1,13.1,0,0,1,16.8,0q3.078,3.051,3.079,8.43v6.322h-17.8v2.44a7.932,7.932,0,0,0,1.581,5.518,5.979,5.979,0,0,0,4.742,1.858,6.632,6.632,0,0,0,4.076-1.109,5.384,5.384,0,0,0,1.969-3.106l4.769,1.276a9.547,9.547,0,0,1-3.688,5.435,11.748,11.748,0,0,1-7.127,2.052,11.413,11.413,0,0,1-8.4-3.05q-3.078-3.05-3.078-8.43V30.9Q1040.619,25.518,1043.7,22.466ZM1058.42,31.4a8.34,8.34,0,0,0-1.608-5.546,5.854,5.854,0,0,0-4.714-1.886,5.937,5.937,0,0,0-4.742,1.886,8.238,8.238,0,0,0-1.636,5.546V33.17h12.7V31.4Z" transform="translate(-646.753 -10.376)"/>
      <path d="M1088.256,35.832v15.2h-5.379V12.207h13.643a13.805,13.805,0,0,1,6.406,1.414,10.214,10.214,0,0,1,5.74,9.4v2a10.136,10.136,0,0,1-2.136,6.405,10.954,10.954,0,0,1-5.851,3.8l8.651,15.64-5.768.721-8.541-15.75h-6.767Zm8.264-4.88a6.213,6.213,0,0,0,6.711-6.6v-0.61a6.545,6.545,0,0,0-1.775-4.8,6.616,6.616,0,0,0-4.936-1.8h-8.264V30.952h8.264Z" transform="translate(-646.753 -10.376)"/>
      <path d="M1119.869,51.028h-5.1V24.352h-3.383V19.971h8.486V51.028Zm-0.3-34.44a3.386,3.386,0,0,1-2.357.777q-3.107,0-3.106-3.217,0-3.382,3.106-3.383a3.247,3.247,0,0,1,2.357.832,3.406,3.406,0,0,1,.859,2.551A3.135,3.135,0,0,1,1119.564,16.588Z" transform="translate(-646.753 -10.376)"/>
      <path d="M1132.318,46.037a7.261,7.261,0,0,0,4.354,1.22,6.514,6.514,0,0,0,4.409-1.331,4.293,4.293,0,0,0,1.525-3.383V42.21A3.382,3.382,0,0,0,1141,39.077a13.666,13.666,0,0,0-5.1-1.414q-9.65-1.219-9.65-8.541v-1a8.1,8.1,0,0,1,2.634-6.35q2.635-2.357,7.737-2.357a11.784,11.784,0,0,1,7.209,2.024,8.532,8.532,0,0,1,3.384,5.3l-4.714,1.386q-0.666-4.38-5.878-4.381a5.529,5.529,0,0,0-3.994,1.248,4.479,4.479,0,0,0-1.276,3.355v0.277a3.272,3.272,0,0,0,1.526,2.967,13,13,0,0,0,4.853,1.47,17.786,17.786,0,0,1,7.4,2.5q2.578,1.775,2.579,5.878v1.276a8.193,8.193,0,0,1-2.967,6.378q-2.912,2.5-8.07,2.5a13.285,13.285,0,0,1-7.542-1.969,8.737,8.737,0,0,1-3.771-5.241l4.825-1.386A5.211,5.211,0,0,0,1132.318,46.037Z" transform="translate(-646.753 -10.376)"/>
      <path d="M1176.718,43.67a6.188,6.188,0,0,0,.418-0.631C1176.982,43.26,1176.837,43.482,1176.718,43.67Z" transform="translate(-646.753 -10.376)"/>
      <path d="M1229.472,12.92l-7.517.921,2.577,2.056L1213.56,32.817l-7.338-16.092-8.9,25.571-9.129-16.689-10.4,16.442c-0.06.1-.35,0.529-0.64,0.964a0.045,0.045,0,0,1-.017.026,6.188,6.188,0,0,1-.418.631c-0.026.034-.051,0.077-0.085,0.119a10.012,10.012,0,0,1-2.829,2.657,14.812,14.812,0,0,1-2.487.63,35.893,35.893,0,0,1-6.7-.045,5.967,5.967,0,0,1-4.735-1.851,7.95,7.95,0,0,1-1.587-5.52V37.22H1176.1V30.9q0-5.375-3.08-8.43a13.077,13.077,0,0,0-16.8,0q-3.084,3.046-3.08,8.43V40.1q0,5.375,3.08,8.43c2.048,2.031,4.867,2.667,8.4,3.046,2.885,0.31,8.3.229,10.7-.94a14.059,14.059,0,0,0,5.855-5.527c0.154-.307.768-1.169,0.93-1.459l5.981-10.742,9.872,18.668,8.78-24.905,6.211,13.5,14.522-21.808,2.944,2.167Zm-71.227,18.472a8.245,8.245,0,0,1,1.638-5.546,5.931,5.931,0,0,1,4.735-1.886,5.87,5.87,0,0,1,4.718,1.886,8.335,8.335,0,0,1,1.6,5.546v1.775h-12.7V31.392Z" transform="translate(-646.753 -10.376)"/>
    </g>
    <g>
      <path d="M663.557,45.177A10.213,10.213,0,0,0,667,42.21V11.541h5.435V40.213a31.956,31.956,0,0,0,.3,4.964,16.663,16.663,0,0,0,1.192,3.91l-4.825,1.83a12.726,12.726,0,0,1-1.386-3.937,14.2,14.2,0,0,1-4.3,2.939,12.75,12.75,0,0,1-5.408,1.22q-11.259,0-11.258-11.536v-27.9l5.38-.721v27.9q0,3.939,1.553,5.713t4.991,1.774A9.931,9.931,0,0,0,663.557,45.177Z" transform="translate(-646.753 -10.376)"/>
      <path d="M684.8,11.541l15.75,29.172-0.166-29.172h5.324V50.363h-5.879L684.187,21.3l0.167,29.061h-5.324V11.541H684.8Z" transform="translate(-646.753 -10.376)"/>
      <path d="M719.6,44.068A7.1,7.1,0,0,0,725,46.2a8.243,8.243,0,0,0,4.436-1.137,6.254,6.254,0,0,0,2.607-3.189l5.1,1.386a9.766,9.766,0,0,1-4.215,5.768,15.6,15.6,0,0,1-14.558.582,11.334,11.334,0,0,1-4.576-4.326,12.41,12.41,0,0,1-1.664-6.461V23.077a12.374,12.374,0,0,1,1.664-6.489,11.4,11.4,0,0,1,4.576-4.3,15.6,15.6,0,0,1,14.558.582,9.768,9.768,0,0,1,4.215,5.768l-5.1,1.386a6.261,6.261,0,0,0-2.607-3.189A8.251,8.251,0,0,0,725,15.7a7.1,7.1,0,0,0-5.408,2.135,8.32,8.32,0,0,0-2.024,5.962V38.05A8.4,8.4,0,0,0,719.6,44.068Z" transform="translate(-646.753 -10.376)"/>
    </g>
  </g>
</svg>
